<svg width="30" height="34" viewBox="0 0 30 34" fill="none" xmlns="http://www.w3.org/2000/svg">
<path d="M27.1734 22.9416C26.9645 24.6516 26.1847 26.2213 24.9796 27.3575C23.7745 28.4936 22.2266 29.1185 20.625 29.1154C11.3203 29.1154 3.75001 20.9627 3.75001 10.9423C3.74714 9.21748 4.32738 7.55052 5.38235 6.25275C6.43733 4.95498 7.8949 4.11516 9.48282 3.89013C9.88437 3.83733 10.291 3.9258 10.642 4.14233C10.993 4.35887 11.2696 4.69185 11.4305 5.09158L13.9055 11.042V11.0571C14.0286 11.3631 14.0795 11.6972 14.0535 12.0295C14.0275 12.3618 13.9256 12.682 13.7567 12.9615C13.7356 12.9956 13.7133 13.0272 13.6899 13.0587L11.25 16.1734C12.1277 18.0942 13.9934 20.0856 15.8004 21.0334L18.6527 18.4198C18.6807 18.3944 18.7101 18.3708 18.7406 18.3491C19 18.1628 19.2983 18.0491 19.6087 18.0183C19.9191 17.9874 20.2318 18.0404 20.5184 18.1724L20.5336 18.18L26.0543 20.8441C26.4261 21.0167 26.7361 21.3143 26.9378 21.6924C27.1395 22.0705 27.2222 22.5087 27.1734 22.9416Z" fill="white"/>
</svg>
